<svg xmlns="http://www.w3.org/2000/svg" width="1024" height="500" viewBox="0 0 1024 500">
 <defs><radialGradient id="bg"><stop stop-color="#253779"/><stop offset="1" stop-color="#080c24"/></radialGradient>
 <radialGradient id="pink"><stop stop-color="#ff65bf" stop-opacity=".30"/><stop offset="1" stop-color="#ff65bf" stop-opacity="0"/></radialGradient>
 <linearGradient id="block" x2="0" y2="1"><stop stop-color="#fff" stop-opacity=".30"/><stop offset="1" stop-color="#fff" stop-opacity=".04"/></linearGradient></defs>
 <rect width="100%" height="100%" fill="url(#bg)"/><ellipse cx="865" cy="295" rx="375" ry="320" fill="url(#pink)"/><circle cx="20" cy="18" r="1" fill="#5b75ac" opacity=".24"/><circle cx="20" cy="50" r="1" fill="#5b75ac" opacity=".24"/><circle cx="20" cy="82" r="1" fill="#5b75ac" opacity=".24"/><circle cx="20" cy="114" r="1" fill="#5b75ac" opacity=".24"/><circle cx="20" cy="146" r="1" fill="#5b75ac" opacity=".24"/><circle cx="20" cy="178" r="1" fill="#5b75ac" opacity=".24"/><circle cx="20" cy="210" r="1" fill="#5b75ac" opacity=".24"/><circle cx="20" cy="242" r="1" fill="#5b75ac" opacity=".24"/><circle cx="20" cy="274" r="1" fill="#5b75ac" opacity=".24"/><circle cx="20" cy="306" r="1" fill="#5b75ac" opacity=".24"/><circle cx="20" cy="338" r="1" fill="#5b75ac" opacity=".24"/><circle cx="20" cy="370" r="1" fill="#5b75ac" opacity=".24"/><circle cx="20" cy="402" r="1" fill="#5b75ac" opacity=".24"/><circle cx="20" cy="434" r="1" fill="#5b75ac" opacity=".24"/><circle cx="20" cy="466" r="1" fill="#5b75ac" opacity=".24"/><circle cx="20" cy="498" r="1" fill="#5b75ac" opacity=".24"/><circle cx="52" cy="18" r="1" fill="#5b75ac" opacity=".24"/><circle cx="52" cy="50" r="1" fill="#5b75ac" opacity=".24"/><circle cx="52" cy="82" r="1" fill="#5b75ac" opacity=".24"/><circle cx="52" cy="114" r="1" fill="#5b75ac" opacity=".24"/><circle cx="52" cy="146" r="1" fill="#5b75ac" opacity=".24"/><circle cx="52" cy="178" r="1" fill="#5b75ac" opacity=".24"/><circle cx="52" cy="210" r="1" fill="#5b75ac" opacity=".24"/><circle cx="52" cy="242" r="1" fill="#5b75ac" opacity=".24"/><circle cx="52" cy="274" r="1" fill="#5b75ac" opacity=".24"/><circle cx="52" cy="306" r="1" fill="#5b75ac" opacity=".24"/><circle cx="52" cy="338" r="1" fill="#5b75ac" opacity=".24"/><circle cx="52" cy="370" r="1" fill="#5b75ac" opacity=".24"/><circle cx="52" cy="402" r="1" fill="#5b75ac" opacity=".24"/><circle cx="52" cy="434" r="1" fill="#5b75ac" opacity=".24"/><circle cx="52" cy="466" r="1" fill="#5b75ac" opacity=".24"/><circle cx="52" cy="498" r="1" fill="#5b75ac" opacity=".24"/><circle cx="84" cy="18" r="1" fill="#5b75ac" opacity=".24"/><circle cx="84" cy="50" r="1" fill="#5b75ac" opacity=".24"/><circle cx="84" cy="82" r="1" fill="#5b75ac" opacity=".24"/><circle cx="84" cy="114" r="1" fill="#5b75ac" opacity=".24"/><circle cx="84" cy="146" r="1" fill="#5b75ac" opacity=".24"/><circle cx="84" cy="178" r="1" fill="#5b75ac" opacity=".24"/><circle cx="84" cy="210" r="1" fill="#5b75ac" opacity=".24"/><circle cx="84" cy="242" r="1" fill="#5b75ac" opacity=".24"/><circle cx="84" cy="274" r="1" fill="#5b75ac" opacity=".24"/><circle cx="84" cy="306" r="1" fill="#5b75ac" opacity=".24"/><circle cx="84" cy="338" r="1" fill="#5b75ac" opacity=".24"/><circle cx="84" cy="370" r="1" fill="#5b75ac" opacity=".24"/><circle cx="84" cy="402" r="1" fill="#5b75ac" opacity=".24"/><circle cx="84" cy="434" r="1" fill="#5b75ac" opacity=".24"/><circle cx="84" cy="466" r="1" fill="#5b75ac" opacity=".24"/><circle cx="84" cy="498" r="1" fill="#5b75ac" opacity=".24"/><circle cx="116" cy="18" r="1" fill="#5b75ac" opacity=".24"/><circle cx="116" cy="50" r="1" fill="#5b75ac" opacity=".24"/><circle cx="116" cy="82" r="1" fill="#5b75ac" opacity=".24"/><circle cx="116" cy="114" r="1" fill="#5b75ac" opacity=".24"/><circle cx="116" cy="146" r="1" fill="#5b75ac" opacity=".24"/><circle cx="116" cy="178" r="1" fill="#5b75ac" opacity=".24"/><circle cx="116" cy="210" r="1" fill="#5b75ac" opacity=".24"/><circle cx="116" cy="242" r="1" fill="#5b75ac" opacity=".24"/><circle cx="116" cy="274" r="1" fill="#5b75ac" opacity=".24"/><circle cx="116" cy="306" r="1" fill="#5b75ac" opacity=".24"/><circle cx="116" cy="338" r="1" fill="#5b75ac" opacity=".24"/><circle cx="116" cy="370" r="1" fill="#5b75ac" opacity=".24"/><circle cx="116" cy="402" r="1" fill="#5b75ac" opacity=".24"/><circle cx="116" cy="434" r="1" fill="#5b75ac" opacity=".24"/><circle cx="116" cy="466" r="1" fill="#5b75ac" opacity=".24"/><circle cx="116" cy="498" r="1" fill="#5b75ac" opacity=".24"/><circle cx="148" cy="18" r="1" fill="#5b75ac" opacity=".24"/><circle cx="148" cy="50" r="1" fill="#5b75ac" opacity=".24"/><circle cx="148" cy="82" r="1" fill="#5b75ac" opacity=".24"/><circle cx="148" cy="114" r="1" fill="#5b75ac" opacity=".24"/><circle cx="148" cy="146" r="1" fill="#5b75ac" opacity=".24"/><circle cx="148" cy="178" r="1" fill="#5b75ac" opacity=".24"/><circle cx="148" cy="210" r="1" fill="#5b75ac" opacity=".24"/><circle cx="148" cy="242" r="1" fill="#5b75ac" opacity=".24"/><circle cx="148" cy="274" r="1" fill="#5b75ac" opacity=".24"/><circle cx="148" cy="306" r="1" fill="#5b75ac" opacity=".24"/><circle cx="148" cy="338" r="1" fill="#5b75ac" opacity=".24"/><circle cx="148" cy="370" r="1" fill="#5b75ac" opacity=".24"/><circle cx="148" cy="402" r="1" fill="#5b75ac" opacity=".24"/><circle cx="148" cy="434" r="1" fill="#5b75ac" opacity=".24"/><circle cx="148" cy="466" r="1" fill="#5b75ac" opacity=".24"/><circle cx="148" cy="498" r="1" fill="#5b75ac" opacity=".24"/><circle cx="180" cy="18" r="1" fill="#5b75ac" opacity=".24"/><circle cx="180" cy="50" r="1" fill="#5b75ac" opacity=".24"/><circle cx="180" cy="82" r="1" fill="#5b75ac" opacity=".24"/><circle cx="180" cy="114" r="1" fill="#5b75ac" opacity=".24"/><circle cx="180" cy="146" r="1" fill="#5b75ac" opacity=".24"/><circle cx="180" cy="178" r="1" fill="#5b75ac" opacity=".24"/><circle cx="180" cy="210" r="1" fill="#5b75ac" opacity=".24"/><circle cx="180" cy="242" r="1" fill="#5b75ac" opacity=".24"/><circle cx="180" cy="274" r="1" fill="#5b75ac" opacity=".24"/><circle cx="180" cy="306" r="1" fill="#5b75ac" opacity=".24"/><circle cx="180" cy="338" r="1" fill="#5b75ac" opacity=".24"/><circle cx="180" cy="370" r="1" fill="#5b75ac" opacity=".24"/><circle cx="180" cy="402" r="1" fill="#5b75ac" opacity=".24"/><circle cx="180" cy="434" r="1" fill="#5b75ac" opacity=".24"/><circle cx="180" cy="466" r="1" fill="#5b75ac" opacity=".24"/><circle cx="180" cy="498" r="1" fill="#5b75ac" opacity=".24"/><circle cx="212" cy="18" r="1" fill="#5b75ac" opacity=".24"/><circle cx="212" cy="50" r="1" fill="#5b75ac" opacity=".24"/><circle cx="212" cy="82" r="1" fill="#5b75ac" opacity=".24"/><circle cx="212" cy="114" r="1" fill="#5b75ac" opacity=".24"/><circle cx="212" cy="146" r="1" fill="#5b75ac" opacity=".24"/><circle cx="212" cy="178" r="1" fill="#5b75ac" opacity=".24"/><circle cx="212" cy="210" r="1" fill="#5b75ac" opacity=".24"/><circle cx="212" cy="242" r="1" fill="#5b75ac" opacity=".24"/><circle cx="212" cy="274" r="1" fill="#5b75ac" opacity=".24"/><circle cx="212" cy="306" r="1" fill="#5b75ac" opacity=".24"/><circle cx="212" cy="338" r="1" fill="#5b75ac" opacity=".24"/><circle cx="212" cy="370" r="1" fill="#5b75ac" opacity=".24"/><circle cx="212" cy="402" r="1" fill="#5b75ac" opacity=".24"/><circle cx="212" cy="434" r="1" fill="#5b75ac" opacity=".24"/><circle cx="212" cy="466" r="1" fill="#5b75ac" opacity=".24"/><circle cx="212" cy="498" r="1" fill="#5b75ac" opacity=".24"/><circle cx="244" cy="18" r="1" fill="#5b75ac" opacity=".24"/><circle cx="244" cy="50" r="1" fill="#5b75ac" opacity=".24"/><circle cx="244" cy="82" r="1" fill="#5b75ac" opacity=".24"/><circle cx="244" cy="114" r="1" fill="#5b75ac" opacity=".24"/><circle cx="244" cy="146" r="1" fill="#5b75ac" opacity=".24"/><circle cx="244" cy="178" r="1" fill="#5b75ac" opacity=".24"/><circle cx="244" cy="210" r="1" fill="#5b75ac" opacity=".24"/><circle cx="244" cy="242" r="1" fill="#5b75ac" opacity=".24"/><circle cx="244" cy="274" r="1" fill="#5b75ac" opacity=".24"/><circle cx="244" cy="306" r="1" fill="#5b75ac" opacity=".24"/><circle cx="244" cy="338" r="1" fill="#5b75ac" opacity=".24"/><circle cx="244" cy="370" r="1" fill="#5b75ac" opacity=".24"/><circle cx="244" cy="402" r="1" fill="#5b75ac" opacity=".24"/><circle cx="244" cy="434" r="1" fill="#5b75ac" opacity=".24"/><circle cx="244" cy="466" r="1" fill="#5b75ac" opacity=".24"/><circle cx="244" cy="498" r="1" fill="#5b75ac" opacity=".24"/><circle cx="276" cy="18" r="1" fill="#5b75ac" opacity=".24"/><circle cx="276" cy="50" r="1" fill="#5b75ac" opacity=".24"/><circle cx="276" cy="82" r="1" fill="#5b75ac" opacity=".24"/><circle cx="276" cy="114" r="1" fill="#5b75ac" opacity=".24"/><circle cx="276" cy="146" r="1" fill="#5b75ac" opacity=".24"/><circle cx="276" cy="178" r="1" fill="#5b75ac" opacity=".24"/><circle cx="276" cy="210" r="1" fill="#5b75ac" opacity=".24"/><circle cx="276" cy="242" r="1" fill="#5b75ac" opacity=".24"/><circle cx="276" cy="274" r="1" fill="#5b75ac" opacity=".24"/><circle cx="276" cy="306" r="1" fill="#5b75ac" opacity=".24"/><circle cx="276" cy="338" r="1" fill="#5b75ac" opacity=".24"/><circle cx="276" cy="370" r="1" fill="#5b75ac" opacity=".24"/><circle cx="276" cy="402" r="1" fill="#5b75ac" opacity=".24"/><circle cx="276" cy="434" r="1" fill="#5b75ac" opacity=".24"/><circle cx="276" cy="466" r="1" fill="#5b75ac" opacity=".24"/><circle cx="276" cy="498" r="1" fill="#5b75ac" opacity=".24"/><circle cx="308" cy="18" r="1" fill="#5b75ac" opacity=".24"/><circle cx="308" cy="50" r="1" fill="#5b75ac" opacity=".24"/><circle cx="308" cy="82" r="1" fill="#5b75ac" opacity=".24"/><circle cx="308" cy="114" r="1" fill="#5b75ac" opacity=".24"/><circle cx="308" cy="146" r="1" fill="#5b75ac" opacity=".24"/><circle cx="308" cy="178" r="1" fill="#5b75ac" opacity=".24"/><circle cx="308" cy="210" r="1" fill="#5b75ac" opacity=".24"/><circle cx="308" cy="242" r="1" fill="#5b75ac" opacity=".24"/><circle cx="308" cy="274" r="1" fill="#5b75ac" opacity=".24"/><circle cx="308" cy="306" r="1" fill="#5b75ac" opacity=".24"/><circle cx="308" cy="338" r="1" fill="#5b75ac" opacity=".24"/><circle cx="308" cy="370" r="1" fill="#5b75ac" opacity=".24"/><circle cx="308" cy="402" r="1" fill="#5b75ac" opacity=".24"/><circle cx="308" cy="434" r="1" fill="#5b75ac" opacity=".24"/><circle cx="308" cy="466" r="1" fill="#5b75ac" opacity=".24"/><circle cx="308" cy="498" r="1" fill="#5b75ac" opacity=".24"/><circle cx="340" cy="18" r="1" fill="#5b75ac" opacity=".24"/><circle cx="340" cy="50" r="1" fill="#5b75ac" opacity=".24"/><circle cx="340" cy="82" r="1" fill="#5b75ac" opacity=".24"/><circle cx="340" cy="114" r="1" fill="#5b75ac" opacity=".24"/><circle cx="340" cy="146" r="1" fill="#5b75ac" opacity=".24"/><circle cx="340" cy="178" r="1" fill="#5b75ac" opacity=".24"/><circle cx="340" cy="210" r="1" fill="#5b75ac" opacity=".24"/><circle cx="340" cy="242" r="1" fill="#5b75ac" opacity=".24"/><circle cx="340" cy="274" r="1" fill="#5b75ac" opacity=".24"/><circle cx="340" cy="306" r="1" fill="#5b75ac" opacity=".24"/><circle cx="340" cy="338" r="1" fill="#5b75ac" opacity=".24"/><circle cx="340" cy="370" r="1" fill="#5b75ac" opacity=".24"/><circle cx="340" cy="402" r="1" fill="#5b75ac" opacity=".24"/><circle cx="340" cy="434" r="1" fill="#5b75ac" opacity=".24"/><circle cx="340" cy="466" r="1" fill="#5b75ac" opacity=".24"/><circle cx="340" cy="498" r="1" fill="#5b75ac" opacity=".24"/><circle cx="372" cy="18" r="1" fill="#5b75ac" opacity=".24"/><circle cx="372" cy="50" r="1" fill="#5b75ac" opacity=".24"/><circle cx="372" cy="82" r="1" fill="#5b75ac" opacity=".24"/><circle cx="372" cy="114" r="1" fill="#5b75ac" opacity=".24"/><circle cx="372" cy="146" r="1" fill="#5b75ac" opacity=".24"/><circle cx="372" cy="178" r="1" fill="#5b75ac" opacity=".24"/><circle cx="372" cy="210" r="1" fill="#5b75ac" opacity=".24"/><circle cx="372" cy="242" r="1" fill="#5b75ac" opacity=".24"/><circle cx="372" cy="274" r="1" fill="#5b75ac" opacity=".24"/><circle cx="372" cy="306" r="1" fill="#5b75ac" opacity=".24"/><circle cx="372" cy="338" r="1" fill="#5b75ac" opacity=".24"/><circle cx="372" cy="370" r="1" fill="#5b75ac" opacity=".24"/><circle cx="372" cy="402" r="1" fill="#5b75ac" opacity=".24"/><circle cx="372" cy="434" r="1" fill="#5b75ac" opacity=".24"/><circle cx="372" cy="466" r="1" fill="#5b75ac" opacity=".24"/><circle cx="372" cy="498" r="1" fill="#5b75ac" opacity=".24"/><circle cx="404" cy="18" r="1" fill="#5b75ac" opacity=".24"/><circle cx="404" cy="50" r="1" fill="#5b75ac" opacity=".24"/><circle cx="404" cy="82" r="1" fill="#5b75ac" opacity=".24"/><circle cx="404" cy="114" r="1" fill="#5b75ac" opacity=".24"/><circle cx="404" cy="146" r="1" fill="#5b75ac" opacity=".24"/><circle cx="404" cy="178" r="1" fill="#5b75ac" opacity=".24"/><circle cx="404" cy="210" r="1" fill="#5b75ac" opacity=".24"/><circle cx="404" cy="242" r="1" fill="#5b75ac" opacity=".24"/><circle cx="404" cy="274" r="1" fill="#5b75ac" opacity=".24"/><circle cx="404" cy="306" r="1" fill="#5b75ac" opacity=".24"/><circle cx="404" cy="338" r="1" fill="#5b75ac" opacity=".24"/><circle cx="404" cy="370" r="1" fill="#5b75ac" opacity=".24"/><circle cx="404" cy="402" r="1" fill="#5b75ac" opacity=".24"/><circle cx="404" cy="434" r="1" fill="#5b75ac" opacity=".24"/><circle cx="404" cy="466" r="1" fill="#5b75ac" opacity=".24"/><circle cx="404" cy="498" r="1" fill="#5b75ac" opacity=".24"/><circle cx="436" cy="18" r="1" fill="#5b75ac" opacity=".24"/><circle cx="436" cy="50" r="1" fill="#5b75ac" opacity=".24"/><circle cx="436" cy="82" r="1" fill="#5b75ac" opacity=".24"/><circle cx="436" cy="114" r="1" fill="#5b75ac" opacity=".24"/><circle cx="436" cy="146" r="1" fill="#5b75ac" opacity=".24"/><circle cx="436" cy="178" r="1" fill="#5b75ac" opacity=".24"/><circle cx="436" cy="210" r="1" fill="#5b75ac" opacity=".24"/><circle cx="436" cy="242" r="1" fill="#5b75ac" opacity=".24"/><circle cx="436" cy="274" r="1" fill="#5b75ac" opacity=".24"/><circle cx="436" cy="306" r="1" fill="#5b75ac" opacity=".24"/><circle cx="436" cy="338" r="1" fill="#5b75ac" opacity=".24"/><circle cx="436" cy="370" r="1" fill="#5b75ac" opacity=".24"/><circle cx="436" cy="402" r="1" fill="#5b75ac" opacity=".24"/><circle cx="436" cy="434" r="1" fill="#5b75ac" opacity=".24"/><circle cx="436" cy="466" r="1" fill="#5b75ac" opacity=".24"/><circle cx="436" cy="498" r="1" fill="#5b75ac" opacity=".24"/><circle cx="468" cy="18" r="1" fill="#5b75ac" opacity=".24"/><circle cx="468" cy="50" r="1" fill="#5b75ac" opacity=".24"/><circle cx="468" cy="82" r="1" fill="#5b75ac" opacity=".24"/><circle cx="468" cy="114" r="1" fill="#5b75ac" opacity=".24"/><circle cx="468" cy="146" r="1" fill="#5b75ac" opacity=".24"/><circle cx="468" cy="178" r="1" fill="#5b75ac" opacity=".24"/><circle cx="468" cy="210" r="1" fill="#5b75ac" opacity=".24"/><circle cx="468" cy="242" r="1" fill="#5b75ac" opacity=".24"/><circle cx="468" cy="274" r="1" fill="#5b75ac" opacity=".24"/><circle cx="468" cy="306" r="1" fill="#5b75ac" opacity=".24"/><circle cx="468" cy="338" r="1" fill="#5b75ac" opacity=".24"/><circle cx="468" cy="370" r="1" fill="#5b75ac" opacity=".24"/><circle cx="468" cy="402" r="1" fill="#5b75ac" opacity=".24"/><circle cx="468" cy="434" r="1" fill="#5b75ac" opacity=".24"/><circle cx="468" cy="466" r="1" fill="#5b75ac" opacity=".24"/><circle cx="468" cy="498" r="1" fill="#5b75ac" opacity=".24"/><circle cx="500" cy="18" r="1" fill="#5b75ac" opacity=".24"/><circle cx="500" cy="50" r="1" fill="#5b75ac" opacity=".24"/><circle cx="500" cy="82" r="1" fill="#5b75ac" opacity=".24"/><circle cx="500" cy="114" r="1" fill="#5b75ac" opacity=".24"/><circle cx="500" cy="146" r="1" fill="#5b75ac" opacity=".24"/><circle cx="500" cy="178" r="1" fill="#5b75ac" opacity=".24"/><circle cx="500" cy="210" r="1" fill="#5b75ac" opacity=".24"/><circle cx="500" cy="242" r="1" fill="#5b75ac" opacity=".24"/><circle cx="500" cy="274" r="1" fill="#5b75ac" opacity=".24"/><circle cx="500" cy="306" r="1" fill="#5b75ac" opacity=".24"/><circle cx="500" cy="338" r="1" fill="#5b75ac" opacity=".24"/><circle cx="500" cy="370" r="1" fill="#5b75ac" opacity=".24"/><circle cx="500" cy="402" r="1" fill="#5b75ac" opacity=".24"/><circle cx="500" cy="434" r="1" fill="#5b75ac" opacity=".24"/><circle cx="500" cy="466" r="1" fill="#5b75ac" opacity=".24"/><circle cx="500" cy="498" r="1" fill="#5b75ac" opacity=".24"/><circle cx="532" cy="18" r="1" fill="#5b75ac" opacity=".24"/><circle cx="532" cy="50" r="1" fill="#5b75ac" opacity=".24"/><circle cx="532" cy="82" r="1" fill="#5b75ac" opacity=".24"/><circle cx="532" cy="114" r="1" fill="#5b75ac" opacity=".24"/><circle cx="532" cy="146" r="1" fill="#5b75ac" opacity=".24"/><circle cx="532" cy="178" r="1" fill="#5b75ac" opacity=".24"/><circle cx="532" cy="210" r="1" fill="#5b75ac" opacity=".24"/><circle cx="532" cy="242" r="1" fill="#5b75ac" opacity=".24"/><circle cx="532" cy="274" r="1" fill="#5b75ac" opacity=".24"/><circle cx="532" cy="306" r="1" fill="#5b75ac" opacity=".24"/><circle cx="532" cy="338" r="1" fill="#5b75ac" opacity=".24"/><circle cx="532" cy="370" r="1" fill="#5b75ac" opacity=".24"/><circle cx="532" cy="402" r="1" fill="#5b75ac" opacity=".24"/><circle cx="532" cy="434" r="1" fill="#5b75ac" opacity=".24"/><circle cx="532" cy="466" r="1" fill="#5b75ac" opacity=".24"/><circle cx="532" cy="498" r="1" fill="#5b75ac" opacity=".24"/><circle cx="564" cy="18" r="1" fill="#5b75ac" opacity=".24"/><circle cx="564" cy="50" r="1" fill="#5b75ac" opacity=".24"/><circle cx="564" cy="82" r="1" fill="#5b75ac" opacity=".24"/><circle cx="564" cy="114" r="1" fill="#5b75ac" opacity=".24"/><circle cx="564" cy="146" r="1" fill="#5b75ac" opacity=".24"/><circle cx="564" cy="178" r="1" fill="#5b75ac" opacity=".24"/><circle cx="564" cy="210" r="1" fill="#5b75ac" opacity=".24"/><circle cx="564" cy="242" r="1" fill="#5b75ac" opacity=".24"/><circle cx="564" cy="274" r="1" fill="#5b75ac" opacity=".24"/><circle cx="564" cy="306" r="1" fill="#5b75ac" opacity=".24"/><circle cx="564" cy="338" r="1" fill="#5b75ac" opacity=".24"/><circle cx="564" cy="370" r="1" fill="#5b75ac" opacity=".24"/><circle cx="564" cy="402" r="1" fill="#5b75ac" opacity=".24"/><circle cx="564" cy="434" r="1" fill="#5b75ac" opacity=".24"/><circle cx="564" cy="466" r="1" fill="#5b75ac" opacity=".24"/><circle cx="564" cy="498" r="1" fill="#5b75ac" opacity=".24"/><circle cx="596" cy="18" r="1" fill="#5b75ac" opacity=".24"/><circle cx="596" cy="50" r="1" fill="#5b75ac" opacity=".24"/><circle cx="596" cy="82" r="1" fill="#5b75ac" opacity=".24"/><circle cx="596" cy="114" r="1" fill="#5b75ac" opacity=".24"/><circle cx="596" cy="146" r="1" fill="#5b75ac" opacity=".24"/><circle cx="596" cy="178" r="1" fill="#5b75ac" opacity=".24"/><circle cx="596" cy="210" r="1" fill="#5b75ac" opacity=".24"/><circle cx="596" cy="242" r="1" fill="#5b75ac" opacity=".24"/><circle cx="596" cy="274" r="1" fill="#5b75ac" opacity=".24"/><circle cx="596" cy="306" r="1" fill="#5b75ac" opacity=".24"/><circle cx="596" cy="338" r="1" fill="#5b75ac" opacity=".24"/><circle cx="596" cy="370" r="1" fill="#5b75ac" opacity=".24"/><circle cx="596" cy="402" r="1" fill="#5b75ac" opacity=".24"/><circle cx="596" cy="434" r="1" fill="#5b75ac" opacity=".24"/><circle cx="596" cy="466" r="1" fill="#5b75ac" opacity=".24"/><circle cx="596" cy="498" r="1" fill="#5b75ac" opacity=".24"/><circle cx="628" cy="18" r="1" fill="#5b75ac" opacity=".24"/><circle cx="628" cy="50" r="1" fill="#5b75ac" opacity=".24"/><circle cx="628" cy="82" r="1" fill="#5b75ac" opacity=".24"/><circle cx="628" cy="114" r="1" fill="#5b75ac" opacity=".24"/><circle cx="628" cy="146" r="1" fill="#5b75ac" opacity=".24"/><circle cx="628" cy="178" r="1" fill="#5b75ac" opacity=".24"/><circle cx="628" cy="210" r="1" fill="#5b75ac" opacity=".24"/><circle cx="628" cy="242" r="1" fill="#5b75ac" opacity=".24"/><circle cx="628" cy="274" r="1" fill="#5b75ac" opacity=".24"/><circle cx="628" cy="306" r="1" fill="#5b75ac" opacity=".24"/><circle cx="628" cy="338" r="1" fill="#5b75ac" opacity=".24"/><circle cx="628" cy="370" r="1" fill="#5b75ac" opacity=".24"/><circle cx="628" cy="402" r="1" fill="#5b75ac" opacity=".24"/><circle cx="628" cy="434" r="1" fill="#5b75ac" opacity=".24"/><circle cx="628" cy="466" r="1" fill="#5b75ac" opacity=".24"/><circle cx="628" cy="498" r="1" fill="#5b75ac" opacity=".24"/><circle cx="660" cy="18" r="1" fill="#5b75ac" opacity=".24"/><circle cx="660" cy="50" r="1" fill="#5b75ac" opacity=".24"/><circle cx="660" cy="82" r="1" fill="#5b75ac" opacity=".24"/><circle cx="660" cy="114" r="1" fill="#5b75ac" opacity=".24"/><circle cx="660" cy="146" r="1" fill="#5b75ac" opacity=".24"/><circle cx="660" cy="178" r="1" fill="#5b75ac" opacity=".24"/><circle cx="660" cy="210" r="1" fill="#5b75ac" opacity=".24"/><circle cx="660" cy="242" r="1" fill="#5b75ac" opacity=".24"/><circle cx="660" cy="274" r="1" fill="#5b75ac" opacity=".24"/><circle cx="660" cy="306" r="1" fill="#5b75ac" opacity=".24"/><circle cx="660" cy="338" r="1" fill="#5b75ac" opacity=".24"/><circle cx="660" cy="370" r="1" fill="#5b75ac" opacity=".24"/><circle cx="660" cy="402" r="1" fill="#5b75ac" opacity=".24"/><circle cx="660" cy="434" r="1" fill="#5b75ac" opacity=".24"/><circle cx="660" cy="466" r="1" fill="#5b75ac" opacity=".24"/><circle cx="660" cy="498" r="1" fill="#5b75ac" opacity=".24"/><circle cx="692" cy="18" r="1" fill="#5b75ac" opacity=".24"/><circle cx="692" cy="50" r="1" fill="#5b75ac" opacity=".24"/><circle cx="692" cy="82" r="1" fill="#5b75ac" opacity=".24"/><circle cx="692" cy="114" r="1" fill="#5b75ac" opacity=".24"/><circle cx="692" cy="146" r="1" fill="#5b75ac" opacity=".24"/><circle cx="692" cy="178" r="1" fill="#5b75ac" opacity=".24"/><circle cx="692" cy="210" r="1" fill="#5b75ac" opacity=".24"/><circle cx="692" cy="242" r="1" fill="#5b75ac" opacity=".24"/><circle cx="692" cy="274" r="1" fill="#5b75ac" opacity=".24"/><circle cx="692" cy="306" r="1" fill="#5b75ac" opacity=".24"/><circle cx="692" cy="338" r="1" fill="#5b75ac" opacity=".24"/><circle cx="692" cy="370" r="1" fill="#5b75ac" opacity=".24"/><circle cx="692" cy="402" r="1" fill="#5b75ac" opacity=".24"/><circle cx="692" cy="434" r="1" fill="#5b75ac" opacity=".24"/><circle cx="692" cy="466" r="1" fill="#5b75ac" opacity=".24"/><circle cx="692" cy="498" r="1" fill="#5b75ac" opacity=".24"/><circle cx="724" cy="18" r="1" fill="#5b75ac" opacity=".24"/><circle cx="724" cy="50" r="1" fill="#5b75ac" opacity=".24"/><circle cx="724" cy="82" r="1" fill="#5b75ac" opacity=".24"/><circle cx="724" cy="114" r="1" fill="#5b75ac" opacity=".24"/><circle cx="724" cy="146" r="1" fill="#5b75ac" opacity=".24"/><circle cx="724" cy="178" r="1" fill="#5b75ac" opacity=".24"/><circle cx="724" cy="210" r="1" fill="#5b75ac" opacity=".24"/><circle cx="724" cy="242" r="1" fill="#5b75ac" opacity=".24"/><circle cx="724" cy="274" r="1" fill="#5b75ac" opacity=".24"/><circle cx="724" cy="306" r="1" fill="#5b75ac" opacity=".24"/><circle cx="724" cy="338" r="1" fill="#5b75ac" opacity=".24"/><circle cx="724" cy="370" r="1" fill="#5b75ac" opacity=".24"/><circle cx="724" cy="402" r="1" fill="#5b75ac" opacity=".24"/><circle cx="724" cy="434" r="1" fill="#5b75ac" opacity=".24"/><circle cx="724" cy="466" r="1" fill="#5b75ac" opacity=".24"/><circle cx="724" cy="498" r="1" fill="#5b75ac" opacity=".24"/><circle cx="756" cy="18" r="1" fill="#5b75ac" opacity=".24"/><circle cx="756" cy="50" r="1" fill="#5b75ac" opacity=".24"/><circle cx="756" cy="82" r="1" fill="#5b75ac" opacity=".24"/><circle cx="756" cy="114" r="1" fill="#5b75ac" opacity=".24"/><circle cx="756" cy="146" r="1" fill="#5b75ac" opacity=".24"/><circle cx="756" cy="178" r="1" fill="#5b75ac" opacity=".24"/><circle cx="756" cy="210" r="1" fill="#5b75ac" opacity=".24"/><circle cx="756" cy="242" r="1" fill="#5b75ac" opacity=".24"/><circle cx="756" cy="274" r="1" fill="#5b75ac" opacity=".24"/><circle cx="756" cy="306" r="1" fill="#5b75ac" opacity=".24"/><circle cx="756" cy="338" r="1" fill="#5b75ac" opacity=".24"/><circle cx="756" cy="370" r="1" fill="#5b75ac" opacity=".24"/><circle cx="756" cy="402" r="1" fill="#5b75ac" opacity=".24"/><circle cx="756" cy="434" r="1" fill="#5b75ac" opacity=".24"/><circle cx="756" cy="466" r="1" fill="#5b75ac" opacity=".24"/><circle cx="756" cy="498" r="1" fill="#5b75ac" opacity=".24"/><circle cx="788" cy="18" r="1" fill="#5b75ac" opacity=".24"/><circle cx="788" cy="50" r="1" fill="#5b75ac" opacity=".24"/><circle cx="788" cy="82" r="1" fill="#5b75ac" opacity=".24"/><circle cx="788" cy="114" r="1" fill="#5b75ac" opacity=".24"/><circle cx="788" cy="146" r="1" fill="#5b75ac" opacity=".24"/><circle cx="788" cy="178" r="1" fill="#5b75ac" opacity=".24"/><circle cx="788" cy="210" r="1" fill="#5b75ac" opacity=".24"/><circle cx="788" cy="242" r="1" fill="#5b75ac" opacity=".24"/><circle cx="788" cy="274" r="1" fill="#5b75ac" opacity=".24"/><circle cx="788" cy="306" r="1" fill="#5b75ac" opacity=".24"/><circle cx="788" cy="338" r="1" fill="#5b75ac" opacity=".24"/><circle cx="788" cy="370" r="1" fill="#5b75ac" opacity=".24"/><circle cx="788" cy="402" r="1" fill="#5b75ac" opacity=".24"/><circle cx="788" cy="434" r="1" fill="#5b75ac" opacity=".24"/><circle cx="788" cy="466" r="1" fill="#5b75ac" opacity=".24"/><circle cx="788" cy="498" r="1" fill="#5b75ac" opacity=".24"/><circle cx="820" cy="18" r="1" fill="#5b75ac" opacity=".24"/><circle cx="820" cy="50" r="1" fill="#5b75ac" opacity=".24"/><circle cx="820" cy="82" r="1" fill="#5b75ac" opacity=".24"/><circle cx="820" cy="114" r="1" fill="#5b75ac" opacity=".24"/><circle cx="820" cy="146" r="1" fill="#5b75ac" opacity=".24"/><circle cx="820" cy="178" r="1" fill="#5b75ac" opacity=".24"/><circle cx="820" cy="210" r="1" fill="#5b75ac" opacity=".24"/><circle cx="820" cy="242" r="1" fill="#5b75ac" opacity=".24"/><circle cx="820" cy="274" r="1" fill="#5b75ac" opacity=".24"/><circle cx="820" cy="306" r="1" fill="#5b75ac" opacity=".24"/><circle cx="820" cy="338" r="1" fill="#5b75ac" opacity=".24"/><circle cx="820" cy="370" r="1" fill="#5b75ac" opacity=".24"/><circle cx="820" cy="402" r="1" fill="#5b75ac" opacity=".24"/><circle cx="820" cy="434" r="1" fill="#5b75ac" opacity=".24"/><circle cx="820" cy="466" r="1" fill="#5b75ac" opacity=".24"/><circle cx="820" cy="498" r="1" fill="#5b75ac" opacity=".24"/><circle cx="852" cy="18" r="1" fill="#5b75ac" opacity=".24"/><circle cx="852" cy="50" r="1" fill="#5b75ac" opacity=".24"/><circle cx="852" cy="82" r="1" fill="#5b75ac" opacity=".24"/><circle cx="852" cy="114" r="1" fill="#5b75ac" opacity=".24"/><circle cx="852" cy="146" r="1" fill="#5b75ac" opacity=".24"/><circle cx="852" cy="178" r="1" fill="#5b75ac" opacity=".24"/><circle cx="852" cy="210" r="1" fill="#5b75ac" opacity=".24"/><circle cx="852" cy="242" r="1" fill="#5b75ac" opacity=".24"/><circle cx="852" cy="274" r="1" fill="#5b75ac" opacity=".24"/><circle cx="852" cy="306" r="1" fill="#5b75ac" opacity=".24"/><circle cx="852" cy="338" r="1" fill="#5b75ac" opacity=".24"/><circle cx="852" cy="370" r="1" fill="#5b75ac" opacity=".24"/><circle cx="852" cy="402" r="1" fill="#5b75ac" opacity=".24"/><circle cx="852" cy="434" r="1" fill="#5b75ac" opacity=".24"/><circle cx="852" cy="466" r="1" fill="#5b75ac" opacity=".24"/><circle cx="852" cy="498" r="1" fill="#5b75ac" opacity=".24"/><circle cx="884" cy="18" r="1" fill="#5b75ac" opacity=".24"/><circle cx="884" cy="50" r="1" fill="#5b75ac" opacity=".24"/><circle cx="884" cy="82" r="1" fill="#5b75ac" opacity=".24"/><circle cx="884" cy="114" r="1" fill="#5b75ac" opacity=".24"/><circle cx="884" cy="146" r="1" fill="#5b75ac" opacity=".24"/><circle cx="884" cy="178" r="1" fill="#5b75ac" opacity=".24"/><circle cx="884" cy="210" r="1" fill="#5b75ac" opacity=".24"/><circle cx="884" cy="242" r="1" fill="#5b75ac" opacity=".24"/><circle cx="884" cy="274" r="1" fill="#5b75ac" opacity=".24"/><circle cx="884" cy="306" r="1" fill="#5b75ac" opacity=".24"/><circle cx="884" cy="338" r="1" fill="#5b75ac" opacity=".24"/><circle cx="884" cy="370" r="1" fill="#5b75ac" opacity=".24"/><circle cx="884" cy="402" r="1" fill="#5b75ac" opacity=".24"/><circle cx="884" cy="434" r="1" fill="#5b75ac" opacity=".24"/><circle cx="884" cy="466" r="1" fill="#5b75ac" opacity=".24"/><circle cx="884" cy="498" r="1" fill="#5b75ac" opacity=".24"/><circle cx="916" cy="18" r="1" fill="#5b75ac" opacity=".24"/><circle cx="916" cy="50" r="1" fill="#5b75ac" opacity=".24"/><circle cx="916" cy="82" r="1" fill="#5b75ac" opacity=".24"/><circle cx="916" cy="114" r="1" fill="#5b75ac" opacity=".24"/><circle cx="916" cy="146" r="1" fill="#5b75ac" opacity=".24"/><circle cx="916" cy="178" r="1" fill="#5b75ac" opacity=".24"/><circle cx="916" cy="210" r="1" fill="#5b75ac" opacity=".24"/><circle cx="916" cy="242" r="1" fill="#5b75ac" opacity=".24"/><circle cx="916" cy="274" r="1" fill="#5b75ac" opacity=".24"/><circle cx="916" cy="306" r="1" fill="#5b75ac" opacity=".24"/><circle cx="916" cy="338" r="1" fill="#5b75ac" opacity=".24"/><circle cx="916" cy="370" r="1" fill="#5b75ac" opacity=".24"/><circle cx="916" cy="402" r="1" fill="#5b75ac" opacity=".24"/><circle cx="916" cy="434" r="1" fill="#5b75ac" opacity=".24"/><circle cx="916" cy="466" r="1" fill="#5b75ac" opacity=".24"/><circle cx="916" cy="498" r="1" fill="#5b75ac" opacity=".24"/><circle cx="948" cy="18" r="1" fill="#5b75ac" opacity=".24"/><circle cx="948" cy="50" r="1" fill="#5b75ac" opacity=".24"/><circle cx="948" cy="82" r="1" fill="#5b75ac" opacity=".24"/><circle cx="948" cy="114" r="1" fill="#5b75ac" opacity=".24"/><circle cx="948" cy="146" r="1" fill="#5b75ac" opacity=".24"/><circle cx="948" cy="178" r="1" fill="#5b75ac" opacity=".24"/><circle cx="948" cy="210" r="1" fill="#5b75ac" opacity=".24"/><circle cx="948" cy="242" r="1" fill="#5b75ac" opacity=".24"/><circle cx="948" cy="274" r="1" fill="#5b75ac" opacity=".24"/><circle cx="948" cy="306" r="1" fill="#5b75ac" opacity=".24"/><circle cx="948" cy="338" r="1" fill="#5b75ac" opacity=".24"/><circle cx="948" cy="370" r="1" fill="#5b75ac" opacity=".24"/><circle cx="948" cy="402" r="1" fill="#5b75ac" opacity=".24"/><circle cx="948" cy="434" r="1" fill="#5b75ac" opacity=".24"/><circle cx="948" cy="466" r="1" fill="#5b75ac" opacity=".24"/><circle cx="948" cy="498" r="1" fill="#5b75ac" opacity=".24"/><circle cx="980" cy="18" r="1" fill="#5b75ac" opacity=".24"/><circle cx="980" cy="50" r="1" fill="#5b75ac" opacity=".24"/><circle cx="980" cy="82" r="1" fill="#5b75ac" opacity=".24"/><circle cx="980" cy="114" r="1" fill="#5b75ac" opacity=".24"/><circle cx="980" cy="146" r="1" fill="#5b75ac" opacity=".24"/><circle cx="980" cy="178" r="1" fill="#5b75ac" opacity=".24"/><circle cx="980" cy="210" r="1" fill="#5b75ac" opacity=".24"/><circle cx="980" cy="242" r="1" fill="#5b75ac" opacity=".24"/><circle cx="980" cy="274" r="1" fill="#5b75ac" opacity=".24"/><circle cx="980" cy="306" r="1" fill="#5b75ac" opacity=".24"/><circle cx="980" cy="338" r="1" fill="#5b75ac" opacity=".24"/><circle cx="980" cy="370" r="1" fill="#5b75ac" opacity=".24"/><circle cx="980" cy="402" r="1" fill="#5b75ac" opacity=".24"/><circle cx="980" cy="434" r="1" fill="#5b75ac" opacity=".24"/><circle cx="980" cy="466" r="1" fill="#5b75ac" opacity=".24"/><circle cx="980" cy="498" r="1" fill="#5b75ac" opacity=".24"/><circle cx="1012" cy="18" r="1" fill="#5b75ac" opacity=".24"/><circle cx="1012" cy="50" r="1" fill="#5b75ac" opacity=".24"/><circle cx="1012" cy="82" r="1" fill="#5b75ac" opacity=".24"/><circle cx="1012" cy="114" r="1" fill="#5b75ac" opacity=".24"/><circle cx="1012" cy="146" r="1" fill="#5b75ac" opacity=".24"/><circle cx="1012" cy="178" r="1" fill="#5b75ac" opacity=".24"/><circle cx="1012" cy="210" r="1" fill="#5b75ac" opacity=".24"/><circle cx="1012" cy="242" r="1" fill="#5b75ac" opacity=".24"/><circle cx="1012" cy="274" r="1" fill="#5b75ac" opacity=".24"/><circle cx="1012" cy="306" r="1" fill="#5b75ac" opacity=".24"/><circle cx="1012" cy="338" r="1" fill="#5b75ac" opacity=".24"/><circle cx="1012" cy="370" r="1" fill="#5b75ac" opacity=".24"/><circle cx="1012" cy="402" r="1" fill="#5b75ac" opacity=".24"/><circle cx="1012" cy="434" r="1" fill="#5b75ac" opacity=".24"/><circle cx="1012" cy="466" r="1" fill="#5b75ac" opacity=".24"/><circle cx="1012" cy="498" r="1" fill="#5b75ac" opacity=".24"/><text x="86" y="112" font-family="Noto Sans CJK JP, DejaVu Sans, sans-serif" font-size="17" font-weight="700" fill="#41e8ee">REVERSE BREAKOUT</text><text x="82" y="190" font-family="Noto Sans CJK JP, DejaVu Sans, sans-serif" font-size="39" font-weight="700" fill="#f0f5ff">ブロック崩しに</text><text x="80" y="285" font-family="Noto Sans CJK JP, DejaVu Sans, sans-serif" font-size="83" font-weight="700" fill="#dfff70">耐えろ！</text><text x="86" y="351" font-family="Noto Sans CJK JP, DejaVu Sans, sans-serif" font-size="23" font-weight="500" fill="#f0f5ff">壊すのはCPU。</text><text x="86" y="387" font-family="Noto Sans CJK JP, DejaVu Sans, sans-serif" font-size="23" font-weight="500" fill="#f0f5ff">守るのは、あなた。</text><rect x="555" y="122" width="38" height="30" rx="5" fill="#41e8ee" fill-opacity=".22" stroke="#41e8ee" stroke-width="2"/><path d="M561 127h26" stroke="#fff" opacity=".5"/><rect x="600" y="122" width="38" height="30" rx="5" fill="#41e8ee" fill-opacity=".22" stroke="#41e8ee" stroke-width="2"/><path d="M606 127h26" stroke="#fff" opacity=".5"/><rect x="645" y="122" width="38" height="30" rx="5" fill="#41e8ee" fill-opacity=".22" stroke="#41e8ee" stroke-width="2"/><path d="M651 127h26" stroke="#fff" opacity=".5"/><rect x="690" y="122" width="38" height="30" rx="5" fill="#41e8ee" fill-opacity=".22" stroke="#41e8ee" stroke-width="2"/><path d="M696 127h26" stroke="#fff" opacity=".5"/><rect x="735" y="122" width="38" height="30" rx="5" fill="#41e8ee" fill-opacity=".22" stroke="#41e8ee" stroke-width="2"/><path d="M741 127h26" stroke="#fff" opacity=".5"/><rect x="780" y="122" width="38" height="30" rx="5" fill="#41e8ee" fill-opacity=".22" stroke="#41e8ee" stroke-width="2"/><path d="M786 127h26" stroke="#fff" opacity=".5"/><rect x="825" y="122" width="38" height="30" rx="5" fill="#41e8ee" fill-opacity=".22" stroke="#41e8ee" stroke-width="2"/><path d="M831 127h26" stroke="#fff" opacity=".5"/><rect x="870" y="122" width="38" height="30" rx="5" fill="#41e8ee" fill-opacity=".22" stroke="#41e8ee" stroke-width="2"/><path d="M876 127h26" stroke="#fff" opacity=".5"/><rect x="555" y="162" width="38" height="30" rx="5" fill="#8a9bff" fill-opacity=".22" stroke="#8a9bff" stroke-width="2"/><path d="M561 167h26" stroke="#fff" opacity=".5"/><rect x="600" y="162" width="38" height="30" rx="5" fill="#8a9bff" fill-opacity=".22" stroke="#8a9bff" stroke-width="2"/><path d="M606 167h26" stroke="#fff" opacity=".5"/><rect x="645" y="162" width="38" height="30" rx="5" fill="#8a9bff" fill-opacity=".22" stroke="#8a9bff" stroke-width="2"/><path d="M651 167h26" stroke="#fff" opacity=".5"/><rect x="690" y="162" width="38" height="30" rx="5" fill="#8a9bff" fill-opacity=".22" stroke="#8a9bff" stroke-width="2"/><path d="M696 167h26" stroke="#fff" opacity=".5"/><rect x="735" y="162" width="38" height="30" rx="5" fill="#8a9bff" fill-opacity=".22" stroke="#8a9bff" stroke-width="2"/><path d="M741 167h26" stroke="#fff" opacity=".5"/><rect x="780" y="162" width="38" height="30" rx="5" fill="#15243f" stroke="#8a9bff" stroke-dasharray="4 4" opacity=".8"/><rect x="825" y="162" width="38" height="30" rx="5" fill="#8a9bff" fill-opacity=".22" stroke="#8a9bff" stroke-width="2"/><path d="M831 167h26" stroke="#fff" opacity=".5"/><rect x="870" y="162" width="38" height="30" rx="5" fill="#8a9bff" fill-opacity=".22" stroke="#8a9bff" stroke-width="2"/><path d="M876 167h26" stroke="#fff" opacity=".5"/><rect x="555" y="202" width="38" height="30" rx="5" fill="#c788ff" fill-opacity=".22" stroke="#c788ff" stroke-width="2"/><path d="M561 207h26" stroke="#fff" opacity=".5"/><rect x="600" y="202" width="38" height="30" rx="5" fill="#c788ff" fill-opacity=".22" stroke="#c788ff" stroke-width="2"/><path d="M606 207h26" stroke="#fff" opacity=".5"/><rect x="645" y="202" width="38" height="30" rx="5" fill="#c788ff" fill-opacity=".22" stroke="#c788ff" stroke-width="2"/><path d="M651 207h26" stroke="#fff" opacity=".5"/><rect x="690" y="202" width="38" height="30" rx="5" fill="#15243f" stroke="#c788ff" stroke-dasharray="4 4" opacity=".8"/><circle cx="709" cy="217" r="37" fill="none" stroke="#dfff70" stroke-width="2"/><path d="M699 217h20 M709 207v20" stroke="#dfff70" stroke-width="3"/><rect x="735" y="202" width="38" height="30" rx="5" fill="#c788ff" fill-opacity=".22" stroke="#c788ff" stroke-width="2"/><path d="M741 207h26" stroke="#fff" opacity=".5"/><rect x="780" y="202" width="38" height="30" rx="5" fill="#c788ff" fill-opacity=".22" stroke="#c788ff" stroke-width="2"/><path d="M786 207h26" stroke="#fff" opacity=".5"/><rect x="825" y="202" width="38" height="30" rx="5" fill="#c788ff" fill-opacity=".22" stroke="#c788ff" stroke-width="2"/><path d="M831 207h26" stroke="#fff" opacity=".5"/><rect x="870" y="202" width="38" height="30" rx="5" fill="#c788ff" fill-opacity=".22" stroke="#c788ff" stroke-width="2"/><path d="M876 207h26" stroke="#fff" opacity=".5"/><rect x="555" y="242" width="38" height="30" rx="5" fill="#ff65bf" fill-opacity=".22" stroke="#ff65bf" stroke-width="2"/><path d="M561 247h26" stroke="#fff" opacity=".5"/><rect x="600" y="242" width="38" height="30" rx="5" fill="#ff65bf" fill-opacity=".22" stroke="#ff65bf" stroke-width="2"/><path d="M606 247h26" stroke="#fff" opacity=".5"/><rect x="645" y="242" width="38" height="30" rx="5" fill="#ff65bf" fill-opacity=".22" stroke="#ff65bf" stroke-width="2"/><path d="M651 247h26" stroke="#fff" opacity=".5"/><rect x="690" y="242" width="38" height="30" rx="5" fill="#ff65bf" fill-opacity=".22" stroke="#ff65bf" stroke-width="2"/><path d="M696 247h26" stroke="#fff" opacity=".5"/><rect x="735" y="242" width="38" height="30" rx="5" fill="#15243f" stroke="#ff65bf" stroke-dasharray="4 4" opacity=".8"/><rect x="780" y="242" width="38" height="30" rx="5" fill="#ff65bf" fill-opacity=".22" stroke="#ff65bf" stroke-width="2"/><path d="M786 247h26" stroke="#fff" opacity=".5"/><rect x="825" y="242" width="38" height="30" rx="5" fill="#ff65bf" fill-opacity=".22" stroke="#ff65bf" stroke-width="2"/><path d="M831 247h26" stroke="#fff" opacity=".5"/><rect x="870" y="242" width="38" height="30" rx="5" fill="#ff65bf" fill-opacity=".22" stroke="#ff65bf" stroke-width="2"/><path d="M876 247h26" stroke="#fff" opacity=".5"/><rect x="555" y="282" width="38" height="30" rx="5" fill="#ffbc6b" fill-opacity=".22" stroke="#ffbc6b" stroke-width="2"/><path d="M561 287h26" stroke="#fff" opacity=".5"/><rect x="600" y="282" width="38" height="30" rx="5" fill="#ffbc6b" fill-opacity=".22" stroke="#ffbc6b" stroke-width="2"/><path d="M606 287h26" stroke="#fff" opacity=".5"/><rect x="645" y="282" width="38" height="30" rx="5" fill="#ffbc6b" fill-opacity=".22" stroke="#ffbc6b" stroke-width="2"/><path d="M651 287h26" stroke="#fff" opacity=".5"/><rect x="690" y="282" width="38" height="30" rx="5" fill="#ffbc6b" fill-opacity=".22" stroke="#ffbc6b" stroke-width="2"/><path d="M696 287h26" stroke="#fff" opacity=".5"/><rect x="735" y="282" width="38" height="30" rx="5" fill="#ffbc6b" fill-opacity=".22" stroke="#ffbc6b" stroke-width="2"/><path d="M741 287h26" stroke="#fff" opacity=".5"/><rect x="780" y="282" width="38" height="30" rx="5" fill="#ffbc6b" fill-opacity=".22" stroke="#ffbc6b" stroke-width="2"/><path d="M786 287h26" stroke="#fff" opacity=".5"/><rect x="825" y="282" width="38" height="30" rx="5" fill="#15243f" stroke="#ffbc6b" stroke-dasharray="4 4" opacity=".8"/><rect x="870" y="282" width="38" height="30" rx="5" fill="#ffbc6b" fill-opacity=".22" stroke="#ffbc6b" stroke-width="2"/><path d="M876 287h26" stroke="#fff" opacity=".5"/><path d="M884 414Q786 387 744 308" fill="none" stroke="#ff65bf" opacity=".18" stroke-width="15"/><path d="M884 414Q786 387 744 308" fill="none" stroke="#ff65bf" stroke-width="4"/><circle cx="744" cy="308" r="8" fill="#fff"/><circle cx="744" cy="308" r="23" fill="#ff65bf" opacity=".16"/><path d="M767.00 308.00l10.00 0.00" stroke="#41e8ee" stroke-width="2" stroke-linecap="round"/><path d="M774.22 314.90l9.75 2.23" stroke="#8a9bff" stroke-width="3" stroke-linecap="round"/><path d="M779.14 324.92l9.01 4.34" stroke="#c788ff" stroke-width="4" stroke-linecap="round"/><path d="M780.75 337.30l7.82 6.23" stroke="#ff65bf" stroke-width="2" stroke-linecap="round"/><path d="M778.29 351.00l6.23 7.82" stroke="#ffbc6b" stroke-width="3" stroke-linecap="round"/><path d="M753.98 328.72l4.34 9.01" stroke="#41e8ee" stroke-width="4" stroke-linecap="round"/><path d="M750.90 338.22l2.23 9.75" stroke="#8a9bff" stroke-width="2" stroke-linecap="round"/><path d="M744.00 347.00l0.00 10.00" stroke="#c788ff" stroke-width="3" stroke-linecap="round"/><path d="M733.54 353.82l-2.23 9.75" stroke="#ff65bf" stroke-width="4" stroke-linecap="round"/><path d="M720.14 357.55l-4.34 9.01" stroke="#ffbc6b" stroke-width="2" stroke-linecap="round"/><path d="M729.66 325.98l-6.23 7.82" stroke="#41e8ee" stroke-width="3" stroke-linecap="round"/><path d="M719.76 327.33l-7.82 6.23" stroke="#8a9bff" stroke-width="4" stroke-linecap="round"/><path d="M708.86 324.92l-9.01 4.34" stroke="#c788ff" stroke-width="2" stroke-linecap="round"/><path d="M698.18 318.46l-9.75 2.23" stroke="#ff65bf" stroke-width="3" stroke-linecap="round"/><path d="M689.00 308.00l-10.00 0.00" stroke="#ffbc6b" stroke-width="4" stroke-linecap="round"/><path d="M721.58 302.88l-9.75 -2.23" stroke="#41e8ee" stroke-width="2" stroke-linecap="round"/><path d="M716.07 294.55l-9.01 -4.34" stroke="#8a9bff" stroke-width="3" stroke-linecap="round"/><path d="M713.51 283.68l-7.82 -6.23" stroke="#c788ff" stroke-width="4" stroke-linecap="round"/><path d="M714.70 271.25l-6.23 -7.82" stroke="#ff65bf" stroke-width="2" stroke-linecap="round"/><path d="M720.14 258.45l-4.34 -9.01" stroke="#ffbc6b" stroke-width="3" stroke-linecap="round"/><path d="M738.88 285.58l-2.23 -9.75" stroke="#41e8ee" stroke-width="4" stroke-linecap="round"/><path d="M744.00 277.00l-0.00 -10.00" stroke="#8a9bff" stroke-width="2" stroke-linecap="round"/><path d="M752.68 269.98l2.23 -9.75" stroke="#c788ff" stroke-width="3" stroke-linecap="round"/><path d="M764.39 265.65l4.34 -9.01" stroke="#ff65bf" stroke-width="4" stroke-linecap="round"/><path d="M778.29 265.00l6.23 -7.82" stroke="#ffbc6b" stroke-width="2" stroke-linecap="round"/><path d="M761.98 293.66l7.82 -6.23" stroke="#41e8ee" stroke-width="3" stroke-linecap="round"/><path d="M771.93 294.55l9.01 -4.34" stroke="#8a9bff" stroke-width="4" stroke-linecap="round"/><path d="M782.02 299.32l9.75 -2.23" stroke="#c788ff" stroke-width="2" stroke-linecap="round"/><rect x="791" y="427" width="115" height="8" rx="4" fill="#41e8ee"/></svg>